<?xml version="1.0" encoding="utf-8"?>
<!-- Generator: Adobe Illustrator 24.0.2, SVG Export Plug-In . SVG Version: 6.00 Build 0)  -->
<svg version="1.1" id="Layer_1" xmlns="http://www.w3.org/2000/svg" xmlns:xlink="http://www.w3.org/1999/xlink" x="0px" y="0px"
	 width="81px" height="81px" viewBox="0 0 81 81" style="enable-background:new 0 0 81 81;" xml:space="preserve">
<style type="text/css">
	.st0{fill:#E83F3F;}
	.st1{fill:#A00000;}
	.st2{fill:#A50C0C;}
</style>
<g>
	<g>
		<circle class="st0" cx="40.5" cy="40.5" r="38"/>
		<path class="st1" d="M40.5,5C60.1,5,76,20.9,76,40.5S60.1,76,40.5,76S5,60.1,5,40.5S20.9,5,40.5,5 M40.5,0C18.1,0,0,18.1,0,40.5
			S18.1,81,40.5,81S81,62.9,81,40.5S62.9,0,40.5,0L40.5,0z"/>
	</g>
	<g>
		<path class="st2" d="M66.8,45.6H14.2c-2.9,0-5.1-2.3-5.1-5.1l0,0c0-2.9,2.3-5.1,5.1-5.1h52.5c2.9,0,5.1,2.3,5.1,5.1l0,0
			C71.9,43.4,69.6,45.6,66.8,45.6z"/>
	</g>
</g>
</svg>
